<svg xmlns="http://www.w3.org/2000/svg" width="1400" height="520" viewBox="0 0 1400 520" role="img" aria-labelledby="title desc">
  <title id="title">We Go Jim App Store chart award banner</title>
  <desc id="desc">Award-style banner celebrating We Go Jim reaching number 9 in Health and Fitness Paid Apps on the App Store.</desc>
  <defs>
    <linearGradient id="bg" x1="0" y1="0" x2="1" y2="1">
      <stop offset="0" stop-color="#071018"/>
      <stop offset="0.46" stop-color="#142b3b"/>
      <stop offset="1" stop-color="#05080c"/>
    </linearGradient>
    <radialGradient id="cyanGlow" cx="18%" cy="18%" r="58%">
      <stop offset="0" stop-color="#7ce3ef" stop-opacity="0.32"/>
      <stop offset="0.42" stop-color="#1e86ff" stop-opacity="0.14"/>
      <stop offset="1" stop-color="#1e86ff" stop-opacity="0"/>
    </radialGradient>
    <radialGradient id="mintGlow" cx="82%" cy="78%" r="55%">
      <stop offset="0" stop-color="#62d8a6" stop-opacity="0.24"/>
      <stop offset="0.55" stop-color="#62d8a6" stop-opacity="0.08"/>
      <stop offset="1" stop-color="#62d8a6" stop-opacity="0"/>
    </radialGradient>
    <linearGradient id="shine" x1="0" y1="0" x2="1" y2="0">
      <stop offset="0" stop-color="#ffffff" stop-opacity="0"/>
      <stop offset="0.48" stop-color="#ffffff" stop-opacity="0.18"/>
      <stop offset="1" stop-color="#ffffff" stop-opacity="0"/>
    </linearGradient>
    <filter id="shadow" x="-10%" y="-20%" width="120%" height="150%">
      <feDropShadow dx="0" dy="24" stdDeviation="24" flood-color="#000" flood-opacity="0.45"/>
    </filter>
    <filter id="textShadow" x="-20%" y="-20%" width="140%" height="150%">
      <feDropShadow dx="0" dy="5" stdDeviation="7" flood-color="#000" flood-opacity="0.65"/>
    </filter>
  </defs>

  <rect width="1400" height="520" rx="34" fill="url(#bg)"/>
  <rect width="1400" height="520" rx="34" fill="url(#cyanGlow)"/>
  <rect width="1400" height="520" rx="34" fill="url(#mintGlow)"/>
  <path d="M0 98c166 26 272-10 424-36 170-30 306 4 430 36 159 41 334 20 546-44v466H0z" fill="#000" opacity="0.18"/>
  <path d="M-40 360c228-86 392-100 548-44 156 57 268 106 454 52 148-43 244-102 478-54v206H-40z" fill="#000" opacity="0.23"/>
  <rect width="1400" height="520" rx="34" fill="#000" opacity="0.18"/>
  <rect x="36" y="34" width="1328" height="452" rx="26" fill="none" stroke="#fff" stroke-opacity="0.10"/>
  <rect x="58" y="56" width="1284" height="408" rx="22" fill="url(#shine)" opacity="0.55"/>

  <g filter="url(#shadow)" opacity="0.98">
    <g transform="translate(262 76) rotate(-17 0 184)" fill="#fff">
      <path d="M18 352C72 220 115 116 208 28" fill="none" stroke="#fff" stroke-width="8" stroke-linecap="round"/>
      <ellipse cx="33" cy="318" rx="14" ry="34" transform="rotate(-42 33 318)"/>
      <ellipse cx="58" cy="270" rx="14" ry="34" transform="rotate(-35 58 270)"/>
      <ellipse cx="84" cy="222" rx="14" ry="34" transform="rotate(-28 84 222)"/>
      <ellipse cx="112" cy="176" rx="14" ry="34" transform="rotate(-20 112 176)"/>
      <ellipse cx="143" cy="131" rx="14" ry="34" transform="rotate(-12 143 131)"/>
      <ellipse cx="179" cy="84" rx="14" ry="34" transform="rotate(-4 179 84)"/>
      <ellipse cx="54" cy="338" rx="12" ry="30" transform="rotate(34 54 338)"/>
      <ellipse cx="82" cy="290" rx="12" ry="30" transform="rotate(28 82 290)"/>
      <ellipse cx="111" cy="242" rx="12" ry="30" transform="rotate(22 111 242)"/>
      <ellipse cx="143" cy="195" rx="12" ry="30" transform="rotate(15 143 195)"/>
      <ellipse cx="178" cy="148" rx="12" ry="30" transform="rotate(7 178 148)"/>
    </g>
    <g transform="translate(1138 76) scale(-1 1) rotate(-17 0 184)" fill="#fff">
      <path d="M18 352C72 220 115 116 208 28" fill="none" stroke="#fff" stroke-width="8" stroke-linecap="round"/>
      <ellipse cx="33" cy="318" rx="14" ry="34" transform="rotate(-42 33 318)"/>
      <ellipse cx="58" cy="270" rx="14" ry="34" transform="rotate(-35 58 270)"/>
      <ellipse cx="84" cy="222" rx="14" ry="34" transform="rotate(-28 84 222)"/>
      <ellipse cx="112" cy="176" rx="14" ry="34" transform="rotate(-20 112 176)"/>
      <ellipse cx="143" cy="131" rx="14" ry="34" transform="rotate(-12 143 131)"/>
      <ellipse cx="179" cy="84" rx="14" ry="34" transform="rotate(-4 179 84)"/>
      <ellipse cx="54" cy="338" rx="12" ry="30" transform="rotate(34 54 338)"/>
      <ellipse cx="82" cy="290" rx="12" ry="30" transform="rotate(28 82 290)"/>
      <ellipse cx="111" cy="242" rx="12" ry="30" transform="rotate(22 111 242)"/>
      <ellipse cx="143" cy="195" rx="12" ry="30" transform="rotate(15 143 195)"/>
      <ellipse cx="178" cy="148" rx="12" ry="30" transform="rotate(7 178 148)"/>
    </g>
  </g>

  <g filter="url(#textShadow)" text-anchor="middle" font-family="-apple-system, BlinkMacSystemFont, 'Segoe UI', sans-serif">
    <text x="700" y="154" font-size="44" font-weight="850" fill="#7ce3ef" letter-spacing="4">APP STORE CHARTS</text>
    <text x="700" y="250" font-size="82" font-weight="950" fill="#ffffff" letter-spacing="-2">#9 Health &amp; Fitness</text>
    <text x="700" y="316" font-size="38" font-weight="820" fill="#ffffff" opacity="0.94">Paid Apps</text>
    <text x="700" y="392" font-size="56" font-weight="900" fill="#ffffff" letter-spacing="14">★★★★★</text>
  </g>

  <g text-anchor="middle" font-family="-apple-system, BlinkMacSystemFont, 'Segoe UI', sans-serif">
    <text x="700" y="448" font-size="25" font-weight="760" fill="#c7d5e2">We Go Jim reached the App Store top 10 in its category.</text>
  </g>
</svg>
